<?xml version="1.0" encoding="UTF-8"?>
<svg id="Layer_1" xmlns="http://www.w3.org/2000/svg" xmlns:xlink="http://www.w3.org/1999/xlink" version="1.1" viewBox="0 0 2262.1 1217.5">
  <!-- Generator: Adobe Illustrator 29.0.1, SVG Export Plug-In . SVG Version: 2.1.0 Build 192)  -->
  <defs>
    <style>
      .st0, .st1, .st2, .st3, .st4, .st5, .st6, .st7, .st8 {
        fill: none;
      }

      .st1 {
        stroke: #006c7b;
      }

      .st1, .st3, .st4, .st5, .st8 {
        stroke-width: .2px;
      }

      .st1, .st4, .st5, .st8 {
        stroke-miterlimit: 10;
      }

      .st9 {
        fill: #46c1be;
      }

      .st10 {
        fill: #88c4e8;
      }

      .st2 {
        stroke: #3d4e6a;
        stroke-linejoin: round;
        stroke-width: 20px;
      }

      .st11 {
        fill: url(#radial-gradient);
      }

      .st3 {
        stroke: #231f20;
      }

      .st12 {
        fill: #c9a1ca;
      }

      .st13 {
        clip-path: url(#clippath-17);
      }

      .st14 {
        clip-path: url(#clippath-19);
      }

      .st15 {
        clip-path: url(#clippath-11);
      }

      .st16 {
        clip-path: url(#clippath-16);
      }

      .st17 {
        clip-path: url(#clippath-18);
      }

      .st18 {
        clip-path: url(#clippath-10);
      }

      .st19 {
        clip-path: url(#clippath-15);
      }

      .st20 {
        clip-path: url(#clippath-13);
      }

      .st21 {
        clip-path: url(#clippath-14);
      }

      .st22 {
        clip-path: url(#clippath-12);
      }

      .st23 {
        clip-path: url(#clippath-50);
      }

      .st24 {
        clip-path: url(#clippath-52);
      }

      .st25 {
        clip-path: url(#clippath-53);
      }

      .st26 {
        clip-path: url(#clippath-51);
      }

      .st27 {
        clip-path: url(#clippath-31);
      }

      .st28 {
        clip-path: url(#clippath-32);
      }

      .st29 {
        clip-path: url(#clippath-33);
      }

      .st30 {
        clip-path: url(#clippath-34);
      }

      .st31 {
        clip-path: url(#clippath-35);
      }

      .st32 {
        clip-path: url(#clippath-39);
      }

      .st33 {
        clip-path: url(#clippath-30);
      }

      .st34 {
        clip-path: url(#clippath-36);
      }

      .st35 {
        clip-path: url(#clippath-37);
      }

      .st36 {
        clip-path: url(#clippath-38);
      }

      .st37 {
        clip-path: url(#clippath-27);
      }

      .st38 {
        clip-path: url(#clippath-29);
      }

      .st39 {
        clip-path: url(#clippath-26);
      }

      .st40 {
        clip-path: url(#clippath-28);
      }

      .st41 {
        clip-path: url(#clippath-20);
      }

      .st42 {
        clip-path: url(#clippath-21);
      }

      .st43 {
        clip-path: url(#clippath-22);
      }

      .st44 {
        clip-path: url(#clippath-23);
      }

      .st45 {
        clip-path: url(#clippath-24);
      }

      .st46 {
        clip-path: url(#clippath-25);
      }

      .st47 {
        clip-path: url(#clippath-41);
      }

      .st48 {
        clip-path: url(#clippath-42);
      }

      .st49 {
        clip-path: url(#clippath-43);
      }

      .st50 {
        clip-path: url(#clippath-44);
      }

      .st51 {
        clip-path: url(#clippath-45);
      }

      .st52 {
        clip-path: url(#clippath-49);
      }

      .st53 {
        clip-path: url(#clippath-40);
      }

      .st54 {
        clip-path: url(#clippath-46);
      }

      .st55 {
        clip-path: url(#clippath-47);
      }

      .st56 {
        clip-path: url(#clippath-48);
      }

      .st57 {
        clip-path: url(#clippath-1);
      }

      .st58 {
        clip-path: url(#clippath-3);
      }

      .st59 {
        clip-path: url(#clippath-4);
      }

      .st60 {
        clip-path: url(#clippath-2);
      }

      .st61 {
        clip-path: url(#clippath-7);
      }

      .st62 {
        clip-path: url(#clippath-6);
      }

      .st63 {
        clip-path: url(#clippath-9);
      }

      .st64 {
        clip-path: url(#clippath-8);
      }

      .st65 {
        clip-path: url(#clippath-5);
      }

      .st66 {
        fill: #fff;
      }

      .st4 {
        stroke: #005496;
      }

      .st67 {
        fill: #4d97cd;
      }

      .st68 {
        fill: #ea9c9d;
      }

      .st69 {
        fill: url(#radial-gradient1);
      }

      .st70 {
        fill: url(#radial-gradient3);
      }

      .st71 {
        fill: url(#radial-gradient2);
      }

      .st72 {
        fill: url(#radial-gradient5);
      }

      .st73 {
        fill: url(#radial-gradient4);
      }

      .st74 {
        fill: #00aaac;
      }

      .st5 {
        stroke: #a2549a;
      }

      .st6 {
        stroke-miterlimit: 10;
        stroke-width: .2px;
      }

      .st6, .st7, .st8 {
        stroke: #4d97cd;
      }

      .st7 {
        stroke-miterlimit: 10;
        stroke-width: .2px;
      }

      .st75 {
        clip-path: url(#clippath);
      }
    </style>
    <clipPath id="clippath">
      <path class="st0" d="M992.1,597.6c-33.1,98.3,19.7,204.8,118,237.9,98.3,33.1,204.8-19.7,237.9-118,33.1-98.3-19.7-204.8-118-237.9-10.9-3.7-21.9-6.3-32.8-7.9-88.1-13-175.6,38.5-205.1,125.9h0Z"/>
    </clipPath>
    <radialGradient id="radial-gradient" cx="2224.6" cy="-270.9" fx="2224.6" fy="-270.9" r="26.1" gradientTransform="translate(-769.1 16662) rotate(-90) scale(7.2 -7.2)" gradientUnits="userSpaceOnUse">
      <stop offset="0" stop-color="#fff"/>
      <stop offset="0" stop-color="#fff"/>
      <stop offset=".3" stop-color="#fcfdfe"/>
      <stop offset=".5" stop-color="#f3f7fb"/>
      <stop offset=".6" stop-color="#e4edf6"/>
      <stop offset=".7" stop-color="#cfe0f0"/>
      <stop offset=".9" stop-color="#b3cee7"/>
      <stop offset="1" stop-color="#92b8dd"/>
      <stop offset="1" stop-color="#8eb6dc"/>
      <stop offset="1" stop-color="#8eb6dc"/>
    </radialGradient>
    <clipPath id="clippath-1">
      <path class="st0" d="M1059.9,622c-23.6,70,14,145.9,84,169.4,70,23.6,145.9-14,169.4-84,23.6-70-14-145.9-84-169.4-7.8-2.6-15.6-4.5-23.5-5.6-62.8-9.3-125,27.4-146,89.6h0Z"/>
    </clipPath>
    <radialGradient id="radial-gradient1" cx="2296.2" cy="-291.3" fx="2296.2" fy="-291.3" r="26.1" gradientTransform="translate(-296.2 12422.3) rotate(-90) scale(5.1 -5.1)" gradientUnits="userSpaceOnUse">
      <stop offset="0" stop-color="#cfddef"/>
      <stop offset="1" stop-color="#278cc6"/>
    </radialGradient>
    <clipPath id="clippath-2">
      <rect class="st0" x="966.4" y="378.8" width="71.9" height="115.6" transform="translate(-88.7 506.9) rotate(-27.2)"/>
    </clipPath>
    <clipPath id="clippath-3">
      <rect class="st0" x="966.4" y="378.8" width="71.9" height="115.6" transform="translate(-88.7 506.9) rotate(-27.2)"/>
    </clipPath>
    <clipPath id="clippath-4">
      <rect class="st0" x="1052.6" y="334.4" width="71.9" height="115.6" transform="translate(-58.8 541.5) rotate(-27.2)"/>
    </clipPath>
    <clipPath id="clippath-5">
      <rect class="st0" x="1052.6" y="334.4" width="71.9" height="115.6" transform="translate(-58.8 541.5) rotate(-27.2)"/>
    </clipPath>
    <clipPath id="clippath-6">
      <rect class="st0" x="1009.7" y="231.2" width="26.1" height="65.8" transform="translate(-7.5 497.2) rotate(-27.2)"/>
    </clipPath>
    <clipPath id="clippath-7">
      <rect class="st0" x="1009.7" y="231.2" width="26.1" height="65.8" transform="translate(-7.5 497.2) rotate(-27.2)"/>
    </clipPath>
    <clipPath id="clippath-8">
      <rect class="st0" x="983.4" y="354.3" width="26.1" height="65.8" transform="translate(-66.7 498.8) rotate(-27.2)"/>
    </clipPath>
    <clipPath id="clippath-9">
      <rect class="st0" x="983.4" y="354.3" width="26.1" height="65.8" transform="translate(-66.7 498.8) rotate(-27.2)"/>
    </clipPath>
    <clipPath id="clippath-10">
      <rect class="st0" x="1070.8" y="309.3" width="26.1" height="65.8" transform="translate(-36.5 533.8) rotate(-27.2)"/>
    </clipPath>
    <clipPath id="clippath-11">
      <rect class="st0" x="1070.8" y="309.3" width="26.1" height="65.8" transform="translate(-36.5 533.8) rotate(-27.2)"/>
    </clipPath>
    <clipPath id="clippath-12">
      <rect class="st0" x="901.6" y="252.6" width="71.7" height="115.5" transform="translate(-38.1 463.3) rotate(-27.2)"/>
    </clipPath>
    <clipPath id="clippath-13">
      <rect class="st0" x="901.6" y="252.6" width="71.7" height="115.5" transform="translate(-38.1 463.3) rotate(-27.2)"/>
    </clipPath>
    <clipPath id="clippath-14">
      <rect class="st0" x="922.3" y="276.1" width="26.1" height="65.8" transform="translate(-37.7 462.2) rotate(-27.2)"/>
    </clipPath>
    <clipPath id="clippath-15">
      <rect class="st0" x="922.3" y="276.1" width="26.1" height="65.8" transform="translate(-37.7 462.2) rotate(-27.2)"/>
    </clipPath>
    <clipPath id="clippath-16">
      <rect class="st0" x="987.6" y="207.9" width="71.7" height="115.6" transform="translate(-8.1 497.7) rotate(-27.2)"/>
    </clipPath>
    <clipPath id="clippath-17">
      <rect class="st0" x="987.6" y="207.9" width="71.7" height="115.6" transform="translate(-8.1 497.7) rotate(-27.2)"/>
    </clipPath>
    <clipPath id="clippath-18">
      <path class="st0" d="M557,963.6c22.2,101.3,122.3,165.4,223.7,143.2,101.3-22.2,165.4-122.4,143.2-223.7s-122.4-165.4-223.7-143.2c-11.2,2.5-22,5.9-32.2,10.2-82.2,34.3-130.7,123.5-110.9,213.5h0Z"/>
    </clipPath>
    <radialGradient id="radial-gradient2" cx="2272.2" cy="-261" fx="2272.2" fy="-261" r="26.1" gradientTransform="translate(17082.3 2797.2) rotate(-180) scale(7.2 -7.2)" gradientUnits="userSpaceOnUse">
      <stop offset="0" stop-color="#fff"/>
      <stop offset="0" stop-color="#fff"/>
      <stop offset=".3" stop-color="#fcfdfe"/>
      <stop offset=".5" stop-color="#f3f7fb"/>
      <stop offset=".6" stop-color="#e4edf6"/>
      <stop offset=".7" stop-color="#cfe0f0"/>
      <stop offset=".9" stop-color="#b3cee7"/>
      <stop offset="1" stop-color="#92b8dd"/>
      <stop offset="1" stop-color="#8eb6dc"/>
      <stop offset="1" stop-color="#8eb6dc"/>
    </radialGradient>
    <clipPath id="clippath-19">
      <path class="st0" d="M627.8,949.6c15.8,72.1,87.2,117.8,159.3,102,72.1-15.8,117.8-87.2,101.9-159.3-15.8-72.2-87.2-117.8-159.3-102-8,1.8-15.7,4.2-23,7.2-58.6,24.4-93,87.9-79,152h0Z"/>
    </clipPath>
    <radialGradient id="radial-gradient3" cx="2363.1" cy="-277.3" fx="2363.1" fy="-277.3" r="26.1" gradientTransform="translate(12854.8 2336.8) rotate(-180) scale(5.1 -5.1)" gradientUnits="userSpaceOnUse">
      <stop offset="0" stop-color="#cfddef"/>
      <stop offset="1" stop-color="#278cc6"/>
    </radialGradient>
    <clipPath id="clippath-20">
      <rect class="st0" x="446.9" y="762.5" width="71.9" height="115.7" transform="translate(-468.8 799) rotate(-58.2)"/>
    </clipPath>
    <clipPath id="clippath-21">
      <rect class="st0" x="446.9" y="762.5" width="71.9" height="115.7" transform="translate(-468.8 799) rotate(-58.2)"/>
    </clipPath>
    <clipPath id="clippath-22">
      <rect class="st0" x="498" y="680.1" width="71.9" height="115.7" transform="translate(-374.6 803.3) rotate(-58.2)"/>
    </clipPath>
    <clipPath id="clippath-23">
      <rect class="st0" x="498" y="680.1" width="71.9" height="115.7" transform="translate(-374.6 803.3) rotate(-58.2)"/>
    </clipPath>
    <clipPath id="clippath-24">
      <rect class="st0" x="370.4" y="589.8" width="26.1" height="65.8" transform="translate(-347.8 620.9) rotate(-58.2)"/>
    </clipPath>
    <clipPath id="clippath-25">
      <rect class="st0" x="370.4" y="589.8" width="26.1" height="65.8" transform="translate(-347.8 620.9) rotate(-58.2)"/>
    </clipPath>
    <clipPath id="clippath-26">
      <rect class="st0" x="439.4" y="748.1" width="26.1" height="65.8" transform="translate(-449.8 754.4) rotate(-58.2)"/>
    </clipPath>
    <clipPath id="clippath-27">
      <rect class="st0" x="439.4" y="748.1" width="26.1" height="65.8" transform="translate(-449.8 754.4) rotate(-58.2)"/>
    </clipPath>
    <clipPath id="clippath-28">
      <rect class="st0" x="491.1" y="664.6" width="26.1" height="65.8" transform="translate(-354.2 758.8) rotate(-58.2)"/>
    </clipPath>
    <clipPath id="clippath-29">
      <rect class="st0" x="491.1" y="664.6" width="26.1" height="65.8" transform="translate(-354.2 758.8) rotate(-58.2)"/>
    </clipPath>
    <clipPath id="clippath-30">
      <rect class="st0" x="326.3" y="687.8" width="71.7" height="115.5" transform="translate(-462.3 660.9) rotate(-58.2)"/>
    </clipPath>
    <clipPath id="clippath-31">
      <rect class="st0" x="326.3" y="687.8" width="71.7" height="115.5" transform="translate(-462.3 660.9) rotate(-58.2)"/>
    </clipPath>
    <clipPath id="clippath-32">
      <rect class="st0" x="298.7" y="644.4" width="26.1" height="65.8" transform="translate(-428.2 585.7) rotate(-58.2)"/>
    </clipPath>
    <clipPath id="clippath-33">
      <rect class="st0" x="298.7" y="644.4" width="26.1" height="65.8" transform="translate(-428.2 585.7) rotate(-58.2)"/>
    </clipPath>
    <clipPath id="clippath-34">
      <rect class="st0" x="377.1" y="605.2" width="71.7" height="115.6" transform="translate(-368.1 665) rotate(-58.2)"/>
    </clipPath>
    <clipPath id="clippath-35">
      <rect class="st0" x="377.1" y="605.2" width="71.7" height="115.6" transform="translate(-368.1 665) rotate(-58.2)"/>
    </clipPath>
    <clipPath id="clippath-36">
      <path class="st0" d="M1547.6,424.1c-67.3,78.9-57.9,197.4,21,264.7,78.9,67.3,197.4,57.9,264.7-21,67.3-78.9,57.9-197.4-21-264.8-8.7-7.4-18-14-27.5-19.5-77-44.8-177.3-29.6-237.2,40.5h0Z"/>
    </clipPath>
    <radialGradient id="radial-gradient4" cx="2194.9" cy="-301.4" fx="2194.9" fy="-301.4" r="26.1" gradientTransform="translate(-469.9 16335.7) rotate(-90) scale(7.2 -7.2)" gradientUnits="userSpaceOnUse">
      <stop offset="0" stop-color="#fff"/>
      <stop offset="0" stop-color="#fff"/>
      <stop offset=".3" stop-color="#fcfdfe"/>
      <stop offset=".5" stop-color="#f3f7fb"/>
      <stop offset=".6" stop-color="#e4edf6"/>
      <stop offset=".7" stop-color="#cfe0f0"/>
      <stop offset=".9" stop-color="#b3cee7"/>
      <stop offset="1" stop-color="#92b8dd"/>
      <stop offset="1" stop-color="#8eb6dc"/>
      <stop offset="1" stop-color="#8eb6dc"/>
    </radialGradient>
    <clipPath id="clippath-37">
      <path class="st0" d="M1601.5,472.1c-47.9,56.2-41.2,140.6,14.9,188.5,56.2,48,140.6,41.3,188.5-14.9,48-56.2,41.3-140.6-14.9-188.5-6.2-5.3-12.8-10-19.7-14-54.8-32-126.2-21.1-168.8,28.9h0Z"/>
    </clipPath>
    <radialGradient id="radial-gradient5" cx="2254.5" cy="-334" fx="2254.5" fy="-334" r="26.1" gradientTransform="translate(-.2 12102) rotate(-90) scale(5.1 -5.1)" gradientUnits="userSpaceOnUse">
      <stop offset="0" stop-color="#cfddef"/>
      <stop offset="1" stop-color="#278cc6"/>
    </radialGradient>
    <clipPath id="clippath-38">
      <rect class="st0" x="1581.1" y="220.7" width="71.9" height="115.6" transform="translate(-19 152.8) rotate(-5.4)"/>
    </clipPath>
    <clipPath id="clippath-39">
      <rect class="st0" x="1581.1" y="220.7" width="71.9" height="115.6" transform="translate(-19 152.8) rotate(-5.4)"/>
    </clipPath>
    <clipPath id="clippath-40">
      <rect class="st0" x="1677.7" y="211.6" width="71.9" height="115.6" transform="translate(-17.7 161.9) rotate(-5.4)"/>
    </clipPath>
    <clipPath id="clippath-41">
      <rect class="st0" x="1677.7" y="211.6" width="71.9" height="115.6" transform="translate(-17.7 161.9) rotate(-5.4)"/>
    </clipPath>
    <clipPath id="clippath-42">
      <rect class="st0" x="1701.5" y="47.1" width="26.1" height="65.8" transform="translate(0 161.1) rotate(-5.4)"/>
    </clipPath>
    <clipPath id="clippath-43">
      <rect class="st0" x="1701.5" y="47.1" width="26.1" height="65.8" transform="translate(0 161.1) rotate(-5.4)"/>
    </clipPath>
    <clipPath id="clippath-44">
      <rect class="st0" x="1617" y="197.6" width="26.1" height="65.8" transform="translate(-14.4 153.8) rotate(-5.4)"/>
    </clipPath>
    <clipPath id="clippath-45">
      <rect class="st0" x="1617" y="197.6" width="26.1" height="65.8" transform="translate(-14.4 153.8) rotate(-5.4)"/>
    </clipPath>
    <clipPath id="clippath-46">
      <rect class="st0" x="1714.8" y="188.4" width="26.1" height="65.8" transform="translate(-13.1 163) rotate(-5.4)"/>
    </clipPath>
    <clipPath id="clippath-47">
      <rect class="st0" x="1714.8" y="188.4" width="26.1" height="65.8" transform="translate(-13.1 163) rotate(-5.4)"/>
    </clipPath>
    <clipPath id="clippath-48">
      <rect class="st0" x="1568" y="79.5" width="71.7" height="115.5" transform="translate(-5.8 151) rotate(-5.4)"/>
    </clipPath>
    <clipPath id="clippath-49">
      <rect class="st0" x="1568" y="79.5" width="71.7" height="115.5" transform="translate(-5.8 151) rotate(-5.4)"/>
    </clipPath>
    <clipPath id="clippath-50">
      <rect class="st0" x="1603.7" y="56.3" width="26.1" height="65.8" transform="translate(-1.2 152) rotate(-5.4)"/>
    </clipPath>
    <clipPath id="clippath-51">
      <rect class="st0" x="1603.7" y="56.3" width="26.1" height="65.8" transform="translate(-1.2 152) rotate(-5.4)"/>
    </clipPath>
    <clipPath id="clippath-52">
      <rect class="st0" x="1664.5" y="70" width="71.7" height="115.6" transform="translate(-4.5 160) rotate(-5.4)"/>
    </clipPath>
    <clipPath id="clippath-53">
      <rect class="st0" x="1664.5" y="70" width="71.7" height="115.6" transform="translate(-4.5 160) rotate(-5.4)"/>
    </clipPath>
  </defs>
  <path d="M453.3,1174.9c97.8-113,209.4-214.7,330.6-302.1,224.8-162.9,482.5-267.1,752.5-327.4,84.8-18.8,171.1-32.8,257.6-41.3,28.7-2.9,57.9-5.4,86.7-7,77.2-4.7,154.5-5.5,231.6-2,0,0,0,1.2,0,1.2-183-.4-366,17.1-545,55.3-112.7,24.4-224.8,54.3-333.4,93.1-158.5,57-308.8,136.2-446.7,233-66.3,46.9-131.4,99.1-191.2,153.9-13.8,12.7-28.6,26.6-42,39.7-34.6,33.6-67.9,68.4-99.9,104.5,0,0-.9-.8-.9-.8h0Z"/>
  <g class="st75">
    <rect class="st11" x="940.3" y="430.3" width="457.2" height="469.7" transform="translate(165.3 1560.4) rotate(-71.4)"/>
  </g>
  <g class="st57">
    <rect class="st69" x="1022.9" y="502.9" width="325.7" height="334.5" transform="translate(172.1 1579.8) rotate(-71.4)"/>
  </g>
  <path class="st3" d="M1059.9,622c-23.6,70,14,145.8,84,169.4,70,23.6,145.9-14,169.4-84,23.6-70-14-145.9-84-169.4-70-23.6-145.9,14-169.4,84Z"/>
  <line class="st2" x1="1107.1" y1="430.5" x2="1152.1" y2="518"/>
  <line class="st2" x1="1022.4" y1="474.1" x2="1067.4" y2="561.6"/>
  <line class="st2" x1="1047.8" y1="524.9" x2="1135.3" y2="479.9"/>
  <path class="st9" d="M1019.1,493.2l19.8-10.2c12.1-6.2,16.9-21.2,10.7-33.3l-42.5-82.6c-6.2-12.1-21.2-16.9-33.3-10.7l-19.8,10.2c-12.1,6.2-16.9,21.2-10.7,33.3l42.5,82.6c6.2,12.1,21.2,16.9,33.3,10.7"/>
  <path class="st1" d="M1019.1,493.2l19.8-10.2c12.1-6.2,16.9-21.2,10.7-33.3l-42.5-82.6c-6.2-12.1-21.2-16.9-33.3-10.7l-19.8,10.2c-12.1,6.2-16.9,21.2-10.7,33.3l42.5,82.6c6.2,12.1,21.2,16.9,33.3,10.7h0Z"/>
  <g class="st60">
    <g class="st58">
      <path class="st10" d="M974.8,458.9c2.6,5,5.4,9.1,8.1,12.5,7.6,9.3,24.5,11.2,42,4.7l11.3-4.2c6.8-3.5,17.4-11.6,14.5-19.7,1.5,7.7,4.4,9.9-1.7,19.6-4,6.3-11.5,11.6-19.5,14.9l-8.7,5.4c-12.3,5.1-25.5,3-31.2-3.4-3.6-4.1-6-10.4-11.1-20.2-2.9-5.5-31.7-62.5-33.3-67.6.9,2.1,28.5,55.8,29.6,58"/>
    </g>
  </g>
  <path class="st74" d="M953.8,366.3l19.8-10.2c12.1-6.2,16.9-21.2,10.7-33.3l-42.5-82.6c-6.2-12.1-21.2-16.9-33.3-10.7l-19.8,10.2c-12.1,6.2-16.9,21.2-10.7,33.3l42.5,82.6c6.2,12.1,21.2,16.9,33.3,10.7"/>
  <path class="st4" d="M953.8,366.3l19.8-10.2c12.1-6.2,16.9-21.2,10.7-33.3l-42.5-82.6c-6.2-12.1-21.2-16.9-33.3-10.7l-19.8,10.2c-12.1,6.2-16.9,21.2-10.7,33.3l42.5,82.6c6.2,12.1,21.2,16.9,33.3,10.7Z"/>
  <path class="st10" d="M1105.3,448.9l19.8-10.2c12.1-6.2,16.9-21.2,10.7-33.3l-42.5-82.6c-6.2-12.1-21.2-16.9-33.3-10.7l-19.8,10.2c-12.1,6.2-16.9,21.2-10.7,33.3l42.5,82.6c6.2,12.1,21.2,16.9,33.3,10.7"/>
  <path class="st8" d="M1105.3,448.9l19.8-10.2c12.1-6.2,16.9-21.2,10.7-33.3l-42.5-82.6c-6.2-12.1-21.2-16.9-33.3-10.7l-19.8,10.2c-12.1,6.2-16.9,21.2-10.7,33.3l42.5,82.6c6.2,12.1,21.2,16.9,33.3,10.7Z"/>
  <g class="st59">
    <g class="st65">
      <path class="st10" d="M1061,414.6c2.6,5,5.4,9.1,8.1,12.5,7.6,9.3,24.5,11.2,42,4.7l11.3-4.2c6.8-3.5,17.4-11.6,14.5-19.7,1.5,7.7,4.4,9.9-1.7,19.6-4,6.3-11.5,11.6-19.5,14.9l-8.7,5.4c-12.3,5.1-25.5,3-31.2-3.4-3.6-4.1-6-10.4-11.1-20.2-2.9-5.5-31.7-62.5-33.3-67.6.9,2.1,28.5,55.8,29.6,58"/>
    </g>
  </g>
  <path class="st67" d="M1040,321.9l19.8-10.2c12.1-6.2,16.9-21.2,10.7-33.3l-42.5-82.6c-6.2-12.1-21.2-16.9-33.3-10.7l-19.8,10.2c-12.1,6.2-16.9,21.2-10.7,33.3l42.5,82.6c6.2,12.1,21.2,16.9,33.3,10.7"/>
  <path class="st4" d="M1040,321.9l19.8-10.2c12.1-6.2,16.9-21.2,10.7-33.3l-42.5-82.6c-6.2-12.1-21.2-16.9-33.3-10.7l-19.8,10.2c-12.1,6.2-16.9,21.2-10.7,33.3l42.5,82.6c6.2,12.1,21.2,16.9,33.3,10.7h0Z"/>
  <g class="st62">
    <g class="st61">
      <path class="st66" d="M1001.1,244.2c4.6-2.2,12-1.2,16.2,2.1,1.7,1.3,4.9,8.7,6.2,11.3,5.5,10.6,9.9,19,15.3,29.6,3.1,6,11.2,1.3,8.3-4.3-6-11.7-12.1-23.4-18.1-35-2.4-4.6-4.1-9.3-9.1-11.5-5.8-2.5-12.5-1.3-18.1,1.4-1.8.9-4.2,2.9-4.3,5.1,0,2.2,2.1,2,3.5,1.3"/>
    </g>
  </g>
  <g class="st64">
    <g class="st63">
      <path class="st66" d="M974.8,367.4c4.6-2.2,12-1.2,16.2,2.1,1.7,1.3,4.9,8.7,6.2,11.3,5.5,10.6,9.9,19,15.3,29.6,3.1,6,11.2,1.3,8.3-4.3-6-11.7-12.1-23.4-18.1-35-2.4-4.6-4.1-9.3-9.1-11.5-5.8-2.5-12.6-1.3-18.1,1.4-1.8.9-4.2,2.9-4.3,5.1,0,2.2,2.1,2,3.5,1.3"/>
    </g>
  </g>
  <g class="st18">
    <g class="st15">
      <path class="st66" d="M1062.2,322.4c4.6-2.2,12-1.2,16.2,2.1,1.7,1.3,4.9,8.7,6.2,11.3,5.5,10.6,9.9,19,15.3,29.6,3.1,6,11.2,1.3,8.3-4.3-6-11.7-12.1-23.4-18.1-35-2.4-4.6-4.1-9.3-9.1-11.5-5.8-2.5-12.5-1.3-18.1,1.4-1.8.9-4.2,2.9-4.3,5.1,0,2.2,2.1,2,3.5,1.3"/>
    </g>
  </g>
  <path class="st12" d="M908.9,230l-9.6,4.9,64.5,125.4,9.6-4.9c11.7-6,16.2-20.7,10.1-32.7l-42.1-81.9c-6.2-12-20.8-16.8-32.5-10.8"/>
  <path class="st5" d="M908.9,230l-9.6,4.9,64.5,125.4,9.6-4.9c11.7-6,16.2-20.7,10.1-32.7l-42.1-81.9c-6.2-12-20.8-16.8-32.5-10.8h0Z"/>
  <g class="st22">
    <g class="st20">
      <path class="st10" d="M909.9,332.8c2.6,5,5.4,9.1,8.1,12.5,7.6,9.3,24.5,11.2,42,4.7l11.3-4.2c6.8-3.5,17.4-11.6,14.5-19.7,1.5,7.7,3.5,11.5-2.6,21.2-4,6.3-10.1,10.2-18.2,13.6l-10.5,5.1c-12.3,5.1-24.7,1.4-30.4-5-3.6-4.1-5.4-8.6-10.6-18.4-2.9-5.5-31.7-62.5-33.3-67.6.9,2.1,28.5,55.8,29.6,58"/>
    </g>
  </g>
  <g class="st21">
    <g class="st19">
      <path class="st66" d="M913.7,289.2c4.6-2.2,12-1.2,16.2,2.1,1.7,1.3,4.9,8.7,6.2,11.3,5.5,10.6,9.9,19,15.3,29.6,3.1,6,11.2,1.3,8.3-4.3-6-11.7-12.1-23.4-18.1-35-2.4-4.6-4.1-9.3-9.1-11.5-5.8-2.5-12.6-1.3-18.1,1.4-1.8.9-4.2,2.9-4.3,5.1,0,2.2,2.1,2,3.5,1.3"/>
    </g>
  </g>
  <path class="st68" d="M1039.6,321.4l9.6-4.9-32.3-62.7-30.9,15.9,21.1,40.9c6.2,12,20.8,16.8,32.5,10.8"/>
  <g class="st16">
    <g class="st13">
      <path class="st10" d="M995.9,288.1c2.6,5,5.4,9.1,8.1,12.5,7.6,9.3,24.5,11.2,42,4.7l11.3-4.2c6.8-3.5,17.4-11.6,14.5-19.7,1.5,7.7,2.7,12.9-2,20.7-3.8,6.4-10.9,11-19,14.3l-10.4,5.3c-12.3,5.1-23.7,2.3-29.3-4.1-3.6-4.1-6.4-10.1-11.6-19.9-2.9-5.5-31.7-62.5-33.3-67.6.9,2.1,28.5,55.8,29.6,58"/>
    </g>
  </g>
  <g class="st17">
    <rect class="st71" x="508.5" y="701.9" width="469.7" height="457.2" transform="translate(-182.2 181) rotate(-12.4)"/>
  </g>
  <g class="st14">
    <rect class="st70" x="593.3" y="763.2" width="334.5" height="325.7" transform="translate(-180.8 184.6) rotate(-12.4)"/>
  </g>
  <path class="st3" d="M627.8,949.6c15.8,72.1,87.1,117.8,159.3,101.9,72.1-15.8,117.8-87.2,101.9-159.3-15.8-72.2-87.1-117.8-159.3-102-72.2,15.8-117.8,87.1-102,159.3h0Z"/>
  <line class="st2" x1="569.5" y1="761.1" x2="653.2" y2="812.9"/>
  <line class="st2" x1="519.3" y1="842.2" x2="603" y2="894"/>
  <line class="st2" x1="567.3" y1="872.6" x2="619.1" y2="789"/>
  <path class="st9" d="M526.4,860.3l11.7-18.9c7.2-11.5,3.5-26.8-8-34l-79-48.9c-11.5-7.2-26.8-3.5-34,8l-11.7,18.9c-7.1,11.5-3.5,26.8,8,34l79,48.9c11.5,7.2,26.8,3.6,34-8"/>
  <path class="st1" d="M526.4,860.3l11.7-18.9c7.2-11.5,3.5-26.8-8-34l-79-48.9c-11.5-7.2-26.8-3.5-34,8l-11.7,18.9c-7.1,11.5-3.5,26.8,8,34l79,48.9c11.5,7.2,26.8,3.6,34-8h0Z"/>
  <g class="st41">
    <g class="st42">
      <path class="st10" d="M470.8,853.7c4.9,2.9,9.3,5.1,13.4,6.5,11.3,4,26.8-3,38.4-17.7l7.5-9.4c4-6.5,8.9-18.9,2.3-24.4,5.2,5.8,8.9,6.2,8.6,17.7-.2,7.4-3.8,15.9-9,22.8l-4.6,9.1c-7.9,10.7-20.3,15.7-28.5,13.2-5.2-1.6-10.5-5.9-19.9-11.6-5.3-3.2-59.4-37.3-63.4-40.8,1.9,1.3,53.2,33.2,55.3,34.4"/>
    </g>
  </g>
  <path class="st74" d="M405,785.1l11.7-18.9c7.1-11.5,3.5-26.8-8-34l-79-48.9c-11.5-7.2-26.8-3.5-34,8l-11.7,18.9c-7.1,11.5-3.5,26.8,8,34l79,48.9c11.5,7.2,26.8,3.6,34-8"/>
  <path class="st4" d="M405,785.1l11.7-18.9c7.1-11.5,3.5-26.8-8-34l-79-48.9c-11.5-7.2-26.8-3.5-34,8l-11.7,18.9c-7.1,11.5-3.5,26.8,8,34l79,48.9c11.5,7.2,26.8,3.6,34-8h0Z"/>
  <path class="st10" d="M577.5,777.8l11.7-18.9c7.2-11.5,3.5-26.8-8-34l-79-48.9c-11.5-7.2-26.8-3.5-34,8l-11.7,18.9c-7.1,11.5-3.5,26.8,8,34l79,48.9c11.5,7.2,26.8,3.6,34-8"/>
  <rect class="st6" x="487" y="659.8" width="71.7" height="142.3" rx="24.7" ry="24.7" transform="translate(-373.9 790.6) rotate(-58.2)"/>
  <g class="st43">
    <g class="st44">
      <path class="st10" d="M521.9,771.3c4.9,2.9,9.3,5.1,13.4,6.5,11.3,4,26.8-3,38.4-17.7l7.5-9.4c4-6.5,8.9-18.9,2.3-24.4,5.2,5.8,8.9,6.2,8.6,17.7-.2,7.4-3.8,15.9-9,22.8l-4.6,9.1c-7.9,10.7-20.3,15.7-28.5,13.2-5.2-1.6-10.5-5.9-19.9-11.6-5.3-3.2-59.4-37.3-63.4-40.8,1.9,1.3,53.2,33.2,55.3,34.4"/>
    </g>
  </g>
  <path class="st67" d="M456.1,702.7l11.7-18.9c7.1-11.5,3.5-26.8-8-34l-79-48.9c-11.5-7.1-26.8-3.5-34,8l-11.7,18.9c-7.1,11.5-3.5,26.8,8,34l79,48.9c11.5,7.2,26.8,3.6,34-8"/>
  <path class="st4" d="M456.1,702.7l11.7-18.9c7.1-11.5,3.5-26.8-8-34l-79-48.9c-11.5-7.1-26.8-3.5-34,8l-11.7,18.9c-7.1,11.5-3.5,26.8,8,34l79,48.9c11.5,7.2,26.8,3.6,34-8h0Z"/>
  <g class="st45">
    <g class="st46">
      <path class="st66" d="M354.7,616.9c2.8-4.2,9.7-7.2,15-6.5,2.1.2,8.6,4.9,11.1,6.5,10.2,6.3,18.2,11.2,28.4,17.5,5.7,3.5,10.2-4.6,4.9-7.9-11.2-6.9-22.4-13.8-33.6-20.7-4.4-2.7-8.3-5.9-13.7-5.2-6.3.8-11.4,5.4-14.8,10.5-1.1,1.7-2.1,4.7-1.1,6.6,1,1.9,2.8.7,3.7-.7"/>
    </g>
  </g>
  <g class="st39">
    <g class="st37">
      <path class="st66" d="M423.6,775.2c2.8-4.2,9.7-7.2,15-6.5,2.1.2,8.6,4.9,11.1,6.5,10.2,6.3,18.2,11.2,28.4,17.5,5.7,3.5,10.2-4.6,4.9-7.9-11.2-6.9-22.4-13.8-33.6-20.7-4.4-2.7-8.3-5.9-13.7-5.2-6.3.8-11.4,5.4-14.8,10.5-1.1,1.7-2.1,4.7-1.1,6.6,1,1.9,2.8.7,3.7-.7"/>
    </g>
  </g>
  <g class="st40">
    <g class="st38">
      <path class="st66" d="M475.4,691.6c2.8-4.2,9.7-7.2,15-6.5,2.1.2,8.6,4.9,11.1,6.5,10.2,6.3,18.2,11.2,28.4,17.5,5.7,3.5,10.2-4.6,4.9-7.9-11.2-6.9-22.4-13.8-33.6-20.7-4.4-2.7-8.3-5.9-13.7-5.2-6.3.8-11.4,5.4-14.8,10.5-1.1,1.7-2.1,4.7-1.1,6.6,1,1.9,2.8.7,3.7-.7"/>
    </g>
  </g>
  <path class="st12" d="M296.4,691.4l-5.7,9.2,119.9,74.3,5.7-9.2c6.9-11.2,3.2-26.1-8.2-33.2l-78.3-48.5c-11.5-7.1-26.5-3.7-33.4,7.5"/>
  <path class="st5" d="M296.4,691.4l-5.7,9.2,119.9,74.3,5.7-9.2c6.9-11.2,3.2-26.1-8.2-33.2l-78.3-48.5c-11.5-7.1-26.5-3.7-33.4,7.5h0Z"/>
  <g class="st33">
    <g class="st27">
      <path class="st10" d="M350.2,779c4.9,2.9,9.3,5.1,13.4,6.5,11.3,4,26.8-3,38.4-17.7l7.5-9.4c4-6.5,8.9-18.9,2.3-24.4,5.2,5.8,9,8,8.7,19.5-.2,7.4-3.4,14-8.6,21l-6.4,9.8c-7.9,10.7-20.5,13.9-28.6,11.3-5.2-1.6-9.1-4.6-18.5-10.3-5.3-3.2-59.4-37.3-63.4-40.8,1.9,1.3,53.2,33.2,55.3,34.4"/>
    </g>
  </g>
  <g class="st28">
    <g class="st29">
      <path class="st66" d="M283,671.4c2.8-4.2,9.7-7.2,15-6.5,2.1.2,8.6,4.9,11.1,6.5,10.2,6.3,18.2,11.2,28.4,17.5,5.7,3.5,10.2-4.6,4.9-7.9-11.2-6.9-22.4-13.8-33.6-20.7-4.4-2.7-8.3-5.9-13.7-5.2-6.3.8-11.4,5.4-14.8,10.5-1.1,1.7-2.1,4.7-1.1,6.6,1,1.9,2.8.7,3.7-.7"/>
    </g>
  </g>
  <path class="st68" d="M455.5,702.5l5.7-9.2-60-37.1-18.3,29.5,39.1,24.2c11.5,7.1,26.5,3.7,33.4-7.5"/>
  <g class="st30">
    <g class="st31">
      <path class="st10" d="M400.9,696.4c4.9,2.9,9.3,5.1,13.4,6.5,11.3,4,26.8-3,38.4-17.7l7.5-9.4c4-6.5,8.9-18.9,2.3-24.4,5.2,5.8,9,9.6,9,18.7s-3.7,15.1-8.9,22l-6.1,9.9c-7.9,10.7-19.1,14.2-27.2,11.6-5.2-1.6-10.7-5.4-20.1-11.1-5.3-3.2-59.4-37.3-63.4-40.8,1.9,1.3,53.2,33.2,55.3,34.4"/>
    </g>
  </g>
  <g class="st34">
    <rect class="st73" x="1458" y="317.9" width="457.2" height="469.7" transform="translate(171.5 1477.1) rotate(-49.5)"/>
  </g>
  <g class="st35">
    <rect class="st72" x="1537.6" y="396.3" width="325.7" height="334.5" transform="translate(168 1491.4) rotate(-49.5)"/>
  </g>
  <path class="st3" d="M1601.5,472.1c-47.9,56.2-41.2,140.6,14.9,188.5,56.2,48,140.6,41.3,188.5-14.9,48-56.2,41.3-140.6-14.9-188.5-56.2-48-140.6-41.3-188.5,14.9h0Z"/>
  <line class="st2" x1="1716.6" y1="311.8" x2="1725.8" y2="409.8"/>
  <line class="st2" x1="1621.7" y1="320.8" x2="1630.9" y2="418.7"/>
  <line class="st2" x1="1626.4" y1="377.4" x2="1724.4" y2="368.2"/>
  <path class="st9" d="M1611.5,337.3l22.2-2.1c13.5-1.3,23.6-13.4,22.3-26.9l-8.7-92.5c-1.3-13.5-13.4-23.5-26.9-22.3l-22.2,2.1c-13.5,1.3-23.5,13.4-22.3,26.9l8.7,92.5c1.3,13.5,13.4,23.5,26.9,22.3"/>
  <path class="st1" d="M1611.5,337.3l22.2-2.1c13.5-1.3,23.6-13.4,22.3-26.9l-8.7-92.5c-1.3-13.5-13.4-23.5-26.9-22.3l-22.2,2.1c-13.5,1.3-23.5,13.4-22.3,26.9l8.7,92.5c1.3,13.5,13.4,23.5,26.9,22.3h0Z"/>
  <g class="st36">
    <g class="st32">
      <path class="st10" d="M1583.2,289c.6,5.6,1.6,10.5,2.9,14.6,3.6,11.5,18.6,19.5,37.3,20l12,.3c7.6-.7,20.5-4.3,20.8-12.9-1.5,7.7.4,10.8-8.9,17.5-6,4.3-15,6.5-23.7,6.6l-10.1,1.8c-13.3.1-24.8-6.7-27.7-14.7-1.8-5.1-1.7-11.9-2.8-22.9-.7-6.2-6.1-69.8-5.8-75.1,0,2.3,5.7,62.4,5.9,64.8"/>
    </g>
  </g>
  <path class="st74" d="M1598.2,195.2l22.2-2.1c13.5-1.3,23.6-13.4,22.3-26.9l-8.7-92.5c-1.3-13.5-13.4-23.5-26.9-22.3l-22.2,2.1c-13.5,1.3-23.5,13.4-22.3,26.9l8.7,92.5c1.3,13.5,13.4,23.5,26.9,22.3"/>
  <path class="st4" d="M1598.2,195.2l22.2-2.1c13.5-1.3,23.6-13.4,22.3-26.9l-8.7-92.5c-1.3-13.5-13.4-23.5-26.9-22.3l-22.2,2.1c-13.5,1.3-23.5,13.4-22.3,26.9l8.7,92.5c1.3,13.5,13.4,23.5,26.9,22.3h0Z"/>
  <path class="st10" d="M1708.1,328.2l22.2-2.1c13.5-1.3,23.6-13.4,22.3-26.9l-8.7-92.5c-1.3-13.5-13.4-23.5-26.9-22.3l-22.2,2.1c-13.5,1.3-23.5,13.4-22.3,26.9l8.7,92.5c1.3,13.5,13.4,23.5,26.9,22.3"/>
  <rect class="st7" x="1676.6" y="185.2" width="71.7" height="142.3" rx="24.7" ry="24.7" transform="translate(-16.5 161.7) rotate(-5.4)"/>
  <g class="st53">
    <g class="st47">
      <path class="st10" d="M1679.7,280c.6,5.6,1.6,10.5,2.9,14.6,3.6,11.5,18.6,19.5,37.3,20l12,.3c7.6-.7,20.5-4.3,20.8-12.9-1.5,7.7.4,10.8-8.9,17.5-6,4.3-15,6.5-23.7,6.6l-10.1,1.8c-13.3.1-24.8-6.7-27.7-14.7-1.8-5.1-1.7-11.9-2.8-22.9-.7-6.2-6.1-69.8-5.8-75.1,0,2.3,5.7,62.4,5.9,64.8"/>
    </g>
  </g>
  <path class="st67" d="M1694.7,186.1l22.2-2.1c13.5-1.3,23.6-13.4,22.3-26.9l-8.7-92.5c-1.3-13.5-13.4-23.5-26.9-22.3l-22.2,2.1c-13.5,1.3-23.5,13.4-22.3,26.9l8.7,92.5c1.3,13.5,13.4,23.5,26.9,22.3"/>
  <path class="st4" d="M1694.7,186.1l22.2-2.1c13.5-1.3,23.6-13.4,22.3-26.9l-8.7-92.5c-1.3-13.5-13.4-23.5-26.9-22.3l-22.2,2.1c-13.5,1.3-23.5,13.4-22.3,26.9l8.7,92.5c1.3,13.5,13.4,23.5,26.9,22.3h0Z"/>
  <g class="st48">
    <g class="st49">
      <path class="st66" d="M1701.9,53.5c5-.4,11.6,3.4,14.3,8,1.1,1.8,1.3,9.9,1.6,12.8,1.1,11.9,2.1,21.3,3.2,33.2.6,6.7,9.9,5.4,9.3-.9-1.2-13.1-2.5-26.2-3.8-39.3-.5-5.1-.3-10.2-4.2-14.1-4.5-4.5-11.2-5.9-17.3-5.4-2,.1-5,1.2-5.9,3.1-.9,2,1.2,2.7,2.8,2.6"/>
    </g>
  </g>
  <g class="st50">
    <g class="st51">
      <path class="st66" d="M1617.3,204c5-.4,11.6,3.4,14.3,8,1.1,1.8,1.3,9.9,1.6,12.8,1.1,11.9,2.1,21.3,3.2,33.2.6,6.7,9.9,5.4,9.3-.9-1.2-13.1-2.5-26.2-3.8-39.3-.5-5.1-.3-10.2-4.2-14.1-4.5-4.5-11.2-5.9-17.3-5.4-2,.1-5,1.1-5.9,3.1-.9,2,1.2,2.7,2.8,2.6"/>
    </g>
  </g>
  <g class="st54">
    <g class="st55">
      <path class="st66" d="M1715.2,194.8c5-.4,11.6,3.4,14.3,8,1.1,1.8,1.3,9.9,1.6,12.8,1.1,11.9,2.1,21.3,3.2,33.2.6,6.7,9.9,5.4,9.3-.9-1.2-13.1-2.5-26.2-3.8-39.3-.5-5.1-.3-10.2-4.2-14.1-4.5-4.5-11.2-5.9-17.3-5.4-2,.1-5,1.1-5.9,3.1-.9,2,1.2,2.7,2.8,2.6"/>
    </g>
  </g>
  <path class="st12" d="M1607.2,52l-10.7,1,13.2,140.4,10.7-1c13.1-1.2,22.8-13.2,21.5-26.6l-8.6-91.7c-1.3-13.4-13-23.4-26.1-22.1"/>
  <path class="st5" d="M1607.2,52l-10.7,1,13.2,140.4,10.7-1c13.1-1.2,22.8-13.2,21.5-26.6l-8.6-91.7c-1.3-13.4-13-23.4-26.1-22.1Z"/>
  <g class="st56">
    <g class="st52">
      <path class="st10" d="M1569.9,147.8c.6,5.6,1.6,10.5,2.9,14.6,3.6,11.5,18.6,19.5,37.3,19.9l12,.3c7.6-.7,20.5-4.3,20.8-12.9-1.5,7.7-1,12-10.3,18.7-6,4.3-13.2,5.8-21.9,5.8l-11.6.8c-13.3.1-23.5-7.9-26.3-16-1.8-5.1-1.8-10-2.9-21-.7-6.2-6.1-69.8-5.8-75.1,0,2.3,5.7,62.4,5.9,64.9"/>
    </g>
  </g>
  <g class="st23">
    <g class="st26">
      <path class="st66" d="M1604,62.7c5-.4,11.6,3.4,14.3,8,1.1,1.8,1.3,9.9,1.6,12.8,1.1,11.9,2.1,21.3,3.2,33.2.6,6.7,9.9,5.4,9.3-.9-1.2-13.1-2.5-26.2-3.8-39.3-.5-5.1-.3-10.2-4.2-14.1-4.5-4.5-11.2-5.9-17.3-5.4-2,.1-5,1.2-5.9,3.1-.9,2,1.2,2.7,2.8,2.6"/>
    </g>
  </g>
  <path class="st68" d="M1694.5,185.5l10.7-1-6.6-70.2-34.6,3.3,4.3,45.8c1.3,13.4,13,23.4,26.1,22.1"/>
  <g class="st24">
    <g class="st25">
      <path class="st10" d="M1666.4,138.3c.6,5.6,1.6,10.5,2.9,14.6,3.6,11.5,18.6,19.5,37.3,19.9l12,.3c7.6-.7,20.5-4.3,20.8-12.9-1.5,7.7-2.3,13-9.5,18.5-5.9,4.5-14.2,6.1-22.9,6.2l-11.6,1.1c-13.3.1-22.8-6.6-25.7-14.7-1.8-5.1-2.2-11.8-3.3-22.7-.7-6.2-6.1-69.8-5.8-75.1,0,2.3,5.7,62.4,5.9,64.9"/>
    </g>
  </g>
  <path d="M777,893.3h-19.9v67.8h-17.4v-67.7h-21v-14.6h59.4l-1.1,14.5Z"/>
  <path d="M1227.3,652.4c0,5.8-.7,11.2-2,16.3-1.4,5.1-3.5,9.5-6.4,13.2-2.9,3.7-6.5,6.7-11,8.8s-9.7,3.2-15.9,3.2h-31.7v-82.3h31.7c6.2,0,11.5,1,15.9,3.1,4.4,2.1,8.1,4.9,11,8.6,2.9,3.6,5,8,6.4,13,1.4,5,2,10.4,2,16.1ZM1209.5,652.4c0-8.5-1.5-15-4.4-19.5-3-4.5-7.3-6.8-13.1-6.8h-14.3v53.3h14.3c5.8,0,10.1-2.4,13.1-7.1,3-4.7,4.4-11.4,4.4-19.9Z"/>
  <path d="M1683.5,596.2v-82.3h17.4v82.3h-17.4Z"/>
</svg>